# File created by Blade
# Date/Time:  Tue Apr 07 21:12:38 2015
# Frame Rate: 120.000 fps
#------------------------------------------------------
:FULLY-SPECIFIED
:DEGREES
1110
root 5.948974 26.869348 9.751869 735.894747 -67.373167 -493.781362
Spine -69.919142 -23.744952 5.428141
Head -83.027989 4.044043 10.680557
LeftShoulder -14.652621 -0.216995 38.105676
LeftArm 159.263898 -29.005725 -132.123121
LeftForeArm 33.125971 -0.000000 114.008098
LeftHand -13.263454 -0.000000 -8.700250
LeftHandThumb1 -26.253704 0.000000 33.147579
RightShoulder -24.387474 59.779489 -54.763609
RightArm 84.585988 48.566638 90.518234
RightForeArm -26.682239 -0.000000 117.933455
RightHand -6.228478 -0.000000 12.493521
RightHandThumb1 -24.326973 -0.000000 -32.862282
LeftUpLeg 16.927993 -6.621080 20.447485
LeftLeg 23.670290 -0.000000 -0.000000
LeftFoot 42.511307 10.097502 1.749875
LeftToeBase 108.680955 -0.000000 -0.000000
RightUpLeg -112.158048 -27.633941 1.603249
RightLeg 133.383136 -0.000000 -0.000000
RightFoot 49.613696 4.024929 -2.260591
RightToeBase 36.879027 -0.000000 -0.000000
1111
root 5.943087 26.866420 9.750154 735.920094 -67.402177 -493.738383
Spine -69.938594 -23.770264 5.430351
Head -83.015408 4.148660 10.466262
LeftShoulder -14.704299 0.002240 38.078717
LeftArm 159.511808 -28.787464 -132.185910
LeftForeArm 33.140510 -0.000000 113.960702
LeftHand -13.194494 -0.000000 -8.918739
LeftHandThumb1 -26.253704 0.000000 33.147579
RightShoulder -24.367592 59.809164 -54.649187
RightArm 84.733429 48.600014 90.563251
RightForeArm -26.689384 -0.000000 117.898999
RightHand -6.304309 -0.000000 12.665537
RightHandThumb1 -24.326973 -0.000000 -32.862282
LeftUpLeg 16.958708 -6.620654 20.474378
LeftLeg 23.679082 -0.000000 -0.000000
LeftFoot 42.503531 10.109237 1.750729
LeftToeBase 108.537048 -0.000000 -0.000000
RightUpLeg -112.193105 -27.563707 1.668547
RightLeg 133.381015 -0.000000 -0.000000
RightFoot 49.601177 4.009458 -2.263649
RightToeBase 36.821994 -0.000000 -0.000000
1112
root 5.936307 26.860800 9.751287 735.972860 -67.436329 -493.675946
Spine -70.014973 -23.740111 5.440657
Head -83.073496 4.166956 10.437361
LeftShoulder -14.685051 0.224688 38.058464
LeftArm 159.839369 -28.633455 -132.387498
LeftForeArm 33.076132 0.000000 113.948730
LeftHand -13.315918 -0.000000 -8.878156
LeftHandThumb1 -26.253704 0.000000 33.147579
RightShoulder -24.407828 59.828214 -54.666376
RightArm 84.846214 48.626124 90.632333
RightForeArm -26.721973 -0.000000 117.894543
RightHand -6.408893 0.000000 12.851078
RightHandThumb1 -24.326973 -0.000000 -32.862282
LeftUpLeg 16.952756 -6.641039 20.476710
LeftLeg 23.657012 -0.000000 -0.000000
LeftFoot 42.485742 10.205217 1.531436
LeftToeBase 108.969434 -0.000000 -0.000000
RightUpLeg -112.268798 -27.494632 1.728721
RightLeg 133.363739 -0.000000 -0.000000
RightFoot 49.576729 3.964635 -2.247404
RightToeBase 36.758281 -0.000000 -0.000000
1113
root 5.931016 26.852864 9.751745 736.117196 -67.485072 -493.671302
Spine -70.154646 -23.682048 5.504411
Head -83.146044 4.192789 10.469828
LeftShoulder -14.716412 0.348081 38.038162
LeftArm 159.991634 -28.530147 -132.466451
LeftForeArm 33.159192 -0.000000 113.939392
LeftHand -13.345266 0.000000 -8.877347
LeftHandThumb1 -26.253704 0.000000 33.147579
RightShoulder -24.512416 59.886299 -54.771411
RightArm 84.851592 48.636306 90.683942
RightForeArm -26.747439 -0.000000 117.901974
RightHand -6.469241 0.000000 13.023284
RightHandThumb1 -24.326973 -0.000000 -32.862282
LeftUpLeg 16.910842 -6.634685 20.491456
LeftLeg 23.623898 -0.000000 -0.000000
LeftFoot 42.507450 10.047686 1.734666
LeftToeBase 108.711595 -0.000000 -0.000000
RightUpLeg -112.373537 -27.390859 1.820352
RightLeg 133.320073 -0.000000 -0.000000
RightFoot 49.566288 3.844224 -2.164059
RightToeBase 36.768151 -0.000000 -0.000000
1114
root 5.925934 26.846104 9.753239 736.211074 -67.522181 -493.629278
Spine -70.274623 -23.652926 5.547423
Head -83.221189 4.248645 10.522341
LeftShoulder -14.791054 0.272201 38.072359
LeftArm 159.904897 -28.525651 -132.391681
LeftForeArm 33.303413 -0.000000 113.947438
LeftHand -13.348314 -0.000000 -9.227128
LeftHandThumb1 -26.253704 0.000000 33.147579
RightShoulder -24.592282 59.930431 -54.855180
RightArm 84.882678 48.688823 90.761031
RightForeArm -26.756932 0.000000 117.912280
RightHand -6.539379 -0.000000 13.144083
RightHandThumb1 -24.326973 -0.000000 -32.862282
LeftUpLeg 16.887049 -6.660244 20.487724
LeftLeg 23.585472 -0.000000 -0.000000
LeftFoot 42.453112 10.024544 1.733027
LeftToeBase 109.150724 -0.000000 -0.000000
RightUpLeg -112.450354 -27.315156 1.863035
RightLeg 133.274131 -0.000000 -0.000000
RightFoot 49.545799 3.779494 -2.057509
RightToeBase 36.870591 -0.000000 -0.000000
1115
root 5.920994 26.839410 9.752038 736.329826 -67.539158 -493.674058
Spine -70.324424 -23.623351 5.617385
Head -83.357180 4.259806 10.557822
LeftShoulder -14.872364 0.109765 38.053711
LeftArm 159.786173 -28.572445 -132.266841
LeftForeArm 33.413726 -0.000000 113.958793
LeftHand -13.341597 -0.000000 -9.767268
LeftHandThumb1 -26.253704 0.000000 33.147579
RightShoulder -25.630635 60.540989 -55.900478
RightArm 83.717945 48.500850 90.221434
RightForeArm -26.810789 -0.000000 118.005198
RightHand -6.533076 -0.000000 13.313766
RightHandThumb1 -24.326973 -0.000000 -32.862282
LeftUpLeg 16.889732 -6.702569 20.527951
LeftLeg 23.567766 -0.000000 -0.000000
LeftFoot 42.456472 10.002294 1.797129
LeftToeBase 108.939696 -0.000000 -0.000000
RightUpLeg -112.465748 -27.240012 1.927099
RightLeg 133.227474 -0.000000 -0.000000
RightFoot 49.538439 3.742263 -2.016833
RightToeBase 36.836371 -0.000000 -0.000000
1116
root 5.915338 26.833372 9.753141 736.357041 -67.555715 -493.604733
Spine -70.393767 -23.639773 5.647295
Head -83.456823 4.352960 10.639516
LeftShoulder -15.039568 -0.354177 38.143883
LeftArm 159.301118 -28.726730 -131.904005
LeftForeArm 33.649432 0.000000 113.952339
LeftHand -13.278396 -0.000000 -10.193525
LeftHandThumb1 -26.253704 0.000000 33.147579
RightShoulder -26.079944 60.828271 -56.322132
RightArm 83.279870 48.465805 90.030557
RightForeArm -26.778356 -0.000000 118.027105
RightHand -6.556151 -0.000000 13.393466
RightHandThumb1 -24.326973 -0.000000 -32.862282
LeftUpLeg 16.868664 -6.757245 20.511185
LeftLeg 23.579137 -0.000000 -0.000000
LeftFoot 42.445807 10.138718 1.871998
LeftToeBase 108.373597 -0.000000 -0.000000
RightUpLeg -112.512790 -27.188009 1.962484
RightLeg 133.176164 -0.000000 -0.000000
RightFoot 49.580009 3.675319 -1.999178
RightToeBase 36.785915 -0.000000 -0.000000
1117
root 5.911017 26.827200 9.752747 736.460889 -67.570295 -493.623664
Spine -70.463687 -23.652102 5.730439
Head -83.570677 4.471384 10.721197
LeftShoulder -15.133316 -0.697681 38.203450
LeftArm 159.062243 -28.879434 -131.670699
LeftForeArm 33.870519 0.000000 113.954356
LeftHand -13.392755 -0.000000 -10.565128
LeftHandThumb1 -26.253704 0.000000 33.147579
RightShoulder -26.402983 61.074038 -56.616366
RightArm 82.984663 48.438996 89.906808
RightForeArm -26.701934 -0.000000 118.052381
RightHand -6.619024 -0.000000 13.514135
RightHandThumb1 -24.326973 -0.000000 -32.862282
LeftUpLeg 16.857488 -6.815926 20.536280
LeftLeg 23.573978 -0.000000 -0.000000
LeftFoot 42.473817 10.171450 1.877624
LeftToeBase 108.513941 -0.000000 -0.000000
RightUpLeg -112.520212 -27.133249 1.982392
RightLeg 133.122490 -0.000000 -0.000000
RightFoot 49.580648 3.720954 -1.941563
RightToeBase 36.795406 -0.000000 -0.000000
1118
root 5.907214 26.822500 9.753669 736.521906 -67.588507 -493.600182
Spine -70.529484 -23.665654 5.788440
Head -83.652418 4.582730 10.792509
LeftShoulder -15.124442 -0.848977 38.200013
LeftArm 159.195655 -28.964347 -131.587404
LeftForeArm 34.163620 -0.000000 113.916251
LeftHand -13.781263 -0.000000 -10.618418
LeftHandThumb1 -26.253704 0.000000 33.147579
RightShoulder -26.448512 61.178488 -56.604405
RightArm 82.994246 48.431639 89.866330
RightForeArm -26.738655 0.000000 118.017669
RightHand -6.652728 -0.000000 13.626142
RightHandThumb1 -24.326973 -0.000000 -32.862282
LeftUpLeg 16.844873 -6.831035 20.550914
LeftLeg 23.571159 -0.000000 -0.000000
LeftFoot 42.556673 10.197022 2.053154
LeftToeBase 108.088979 -0.000000 -0.000000
RightUpLeg -112.524770 -27.096903 1.979929
RightLeg 133.079733 -0.000000 -0.000000
RightFoot 49.599642 3.872331 -2.016371
RightToeBase 36.579902 -0.000000 -0.000000
1119
root 5.903350 26.819442 9.752644 736.638237 -67.599551 -493.648457
Spine -70.580013 -23.683524 5.870201
Head -83.736372 4.691179 10.825975
LeftShoulder -15.136032 -0.898699 38.222747
LeftArm 159.268446 -28.988471 -131.583890
LeftForeArm 34.202830 -0.000000 113.901938
LeftHand -13.595940 -0.000000 -11.284224
LeftHandThumb1 -26.253704 0.000000 33.147579
RightShoulder -26.371740 61.255861 -56.443959
RightArm 83.083779 48.413163 89.793789
RightForeArm -26.866561 0.000000 117.943116
RightHand -6.672900 -0.000000 13.653403
RightHandThumb1 -24.326973 -0.000000 -32.862282
LeftUpLeg 16.840798 -6.835793 20.606767
LeftLeg 23.578050 -0.000000 -0.000000
LeftFoot 42.553380 10.268171 2.044132
LeftToeBase 108.552600 -0.000000 -0.000000
RightUpLeg -112.521141 -27.060656 1.990702
RightLeg 133.026881 -0.000000 -0.000000
RightFoot 49.564934 3.859962 -1.918280
RightToeBase 36.861242 -0.000000 -0.000000
